#define lingvo_width 72
#define lingvo_height 44
static char lingvo_bits[] = {
 0x00,0x00,0x00,0x00,0x00,0x00,0x00,0x00,0x00,0x00,0x00,0x00,0x00,0x00,0x00,
 0x00,0x00,0x00,0x00,0x00,0x00,0x00,0x00,0x00,0x00,0x00,0x00,0x00,0x00,0x00,
 0x00,0x00,0x00,0x00,0x00,0x00,0x00,0x00,0x00,0x00,0x00,0x00,0x00,0x00,0x00,
 0x00,0x00,0x00,0x00,0x00,0x00,0x00,0x00,0x00,0x00,0x00,0x00,0x00,0x00,0x00,
 0x00,0x00,0x00,0x00,0x00,0xfc,0xff,0x00,0xff,0x7f,0x00,0x00,0x00,0xfc,0x03,
 0x00,0xc1,0x00,0x80,0x0f,0x00,0x00,0x07,0x00,0x00,0x36,0x00,0x00,0x70,0x00,
 0x80,0x07,0x00,0x00,0x08,0x00,0x00,0xe0,0x01,0x80,0x02,0xf8,0x3f,0x08,0xfe,
 0x7f,0xa0,0x01,0x80,0xe5,0x07,0xc0,0x08,0x01,0x80,0xd3,0x01,0x80,0x02,0x00,
 0x00,0x08,0x00,0x00,0xa0,0x01,0x80,0x05,0xf8,0x3f,0x08,0xfe,0x7f,0xd0,0x01,
 0x80,0xe5,0x07,0xc0,0x08,0x01,0x80,0xd3,0x01,0x80,0x02,0x00,0x00,0x08,0x00,
 0x00,0xa0,0x01,0x80,0x05,0xf8,0x3f,0x08,0xfe,0x7f,0xd0,0x01,0x80,0xe2,0x07,
 0xc0,0x08,0x01,0x80,0xa3,0x01,0x80,0x05,0x00,0x00,0x08,0x00,0x00,0xd0,0x01,
 0x80,0x05,0xf8,0x3f,0x08,0xfe,0x3f,0xd0,0x01,0x80,0xe2,0x07,0xc0,0x08,0x01,
 0xc0,0xa3,0x01,0x80,0x05,0x00,0x00,0x08,0x00,0x00,0xd0,0x01,0x80,0x05,0xf8,
 0x3f,0x08,0xfe,0x3f,0xa0,0x01,0x80,0xe2,0x07,0xc0,0x08,0x01,0xc0,0xd3,0x01,
 0x80,0x05,0x00,0x00,0x08,0x00,0x00,0xd0,0x01,0x80,0x02,0xf8,0x3f,0x08,0xfe,
 0x3f,0xa0,0x01,0x80,0xe5,0x07,0xc0,0x08,0x01,0xc0,0xd3,0x01,0x80,0x05,0x00,
 0x00,0x08,0x00,0x00,0xa0,0x01,0x80,0x02,0x00,0x00,0x08,0x00,0x00,0xd0,0x01,
 0x80,0x05,0x00,0x00,0x08,0x00,0x00,0xd0,0x01,0x80,0x05,0x00,0x00,0x08,0x00,
 0x00,0xa0,0x01,0x80,0x02,0xa8,0xaa,0x08,0xaa,0x2a,0xd0,0x01,0x80,0xad,0x56,
 0x55,0x6d,0xb7,0xad,0xaa,0x01,0x80,0x55,0xfd,0xff,0xad,0xff,0xbf,0xd5,0x01,
 0x80,0xff,0x03,0x00,0xdb,0x00,0xc0,0xff,0x01,0x00,0x00,0x00,0x00,0x3e,0x00,
 0x00,0x00,0x00,0x00,0x00,0x00,0x00,0x00,0x00,0x00,0x00,0x00,0x00,0x00,0x00,
 0x00,0x00,0x00,0x00,0x00,0x00,0x00,0x00,0x00,0x00,0x00,0x00,0x00,0x00,0x00,
 0x00,0x00,0x00,0x00,0x00,0x00,0x00,0x00,0x00,0x00,0x00,0x00,0x00,0x00,0x00,
 0x00,0x00,0x00,0x00,0x00,0x00,0x00,0x00,0x00,0x00,0x00,0x00,0x00,0x00,0x00,
 0x00,0x00,0x00,0x00,0x00,0x00};
